<?xml version="1.0" encoding="utf-8"?>
<!-- Generator: Adobe Illustrator 27.1.0, SVG Export Plug-In . SVG Version: 6.00 Build 0)  -->
<svg version="1.1" id="Capa_1" xmlns="http://www.w3.org/2000/svg" xmlns:xlink="http://www.w3.org/1999/xlink" x="0px" y="0px"
	 viewBox="0 0 194.6 58.5" style="enable-background:new 0 0 194.6 58.5;" xml:space="preserve">
<style type="text/css">
	.st0{fill:#0070C4;}
	.st1{fill:#FF7F00;}
	.st2{fill:#2F84E0;}
	.st3{fill:#0F4F70;}
	.st4{fill:#FF9D00;}
</style>
<g>
	<path class="st0" d="M17.2,55.5c-0.3-0.1-0.5-0.3-0.7-0.5s-0.3-0.5-0.3-0.8H17c0,0.3,0.1,0.5,0.3,0.7c0.2,0.2,0.5,0.3,0.8,0.3
		c0.3,0,0.6-0.1,0.8-0.3c0.2-0.2,0.3-0.4,0.3-0.7c0-0.2-0.1-0.4-0.2-0.5c-0.1-0.1-0.3-0.2-0.4-0.3c-0.2-0.1-0.4-0.1-0.7-0.2
		c-0.4-0.1-0.7-0.2-0.9-0.3s-0.4-0.2-0.6-0.5s-0.2-0.5-0.2-0.8c0-0.3,0.1-0.6,0.2-0.8c0.2-0.2,0.4-0.4,0.7-0.5s0.6-0.2,1-0.2
		c0.5,0,0.9,0.1,1.3,0.4c0.3,0.3,0.5,0.6,0.6,1h-0.8c0-0.2-0.1-0.4-0.3-0.6c-0.2-0.2-0.5-0.2-0.8-0.2c-0.3,0-0.6,0.1-0.7,0.2
		S17,51.3,17,51.5c0,0.2,0.1,0.4,0.2,0.5c0.1,0.1,0.3,0.2,0.4,0.3s0.4,0.1,0.7,0.2c0.4,0.1,0.7,0.2,0.9,0.3c0.2,0.1,0.4,0.3,0.6,0.5
		c0.2,0.2,0.2,0.5,0.2,0.8c0,0.3-0.1,0.5-0.2,0.8c-0.1,0.2-0.4,0.4-0.6,0.6c-0.3,0.1-0.6,0.2-1,0.2C17.8,55.7,17.5,55.7,17.2,55.5z"
		/>
	<path class="st0" d="M21.8,50.1v5.6h-0.7v-5.6H21.8z"/>
	<path class="st0" d="M23.9,55.5c-0.3-0.1-0.5-0.3-0.7-0.5s-0.3-0.5-0.3-0.8h0.8c0,0.3,0.1,0.5,0.3,0.7c0.2,0.2,0.5,0.3,0.8,0.3
		c0.3,0,0.6-0.1,0.8-0.3c0.2-0.2,0.3-0.4,0.3-0.7c0-0.2-0.1-0.4-0.2-0.5c-0.1-0.1-0.3-0.2-0.4-0.3c-0.2-0.1-0.4-0.1-0.7-0.2
		c-0.4-0.1-0.7-0.2-0.9-0.3s-0.4-0.2-0.6-0.5s-0.2-0.5-0.2-0.8c0-0.3,0.1-0.6,0.2-0.8c0.2-0.2,0.4-0.4,0.7-0.5s0.6-0.2,1-0.2
		c0.5,0,0.9,0.1,1.3,0.4c0.3,0.3,0.5,0.6,0.6,1h-0.8c0-0.2-0.1-0.4-0.3-0.6c-0.2-0.2-0.5-0.2-0.8-0.2c-0.3,0-0.6,0.1-0.7,0.2
		s-0.3,0.4-0.3,0.7c0,0.2,0.1,0.4,0.2,0.5c0.1,0.1,0.3,0.2,0.4,0.3s0.4,0.1,0.7,0.2c0.4,0.1,0.7,0.2,0.9,0.3
		c0.2,0.1,0.4,0.3,0.6,0.5c0.2,0.2,0.2,0.5,0.2,0.8c0,0.3-0.1,0.5-0.2,0.8c-0.1,0.2-0.4,0.4-0.6,0.6c-0.3,0.1-0.6,0.2-1,0.2
		C24.5,55.7,24.1,55.7,23.9,55.5z"/>
	<path class="st0" d="M31.2,50.1v0.6h-1.5v5h-0.7v-5h-1.5v-0.6H31.2z"/>
	<path class="st0" d="M32.8,50.7v1.9h2v0.6h-2v1.9h2.3v0.6h-3v-5.6h3v0.6H32.8z"/>
	<path class="st0" d="M41.8,50.1v5.5h-0.7v-4.1l-1.8,4.1h-0.5l-1.8-4.1v4.1h-0.7v-5.5H37l2,4.6l2-4.6H41.8z"/>
	<path class="st0" d="M46.4,54.4h-2.4l-0.4,1.2h-0.8l2-5.5h0.8l2,5.5h-0.8L46.4,54.4z M46.2,53.8l-1-2.8l-1,2.8H46.2z"/>
	<path class="st0" d="M49.2,55.5c-0.3-0.1-0.5-0.3-0.7-0.5s-0.3-0.5-0.3-0.8h0.8c0,0.3,0.1,0.5,0.3,0.7c0.2,0.2,0.5,0.3,0.8,0.3
		c0.3,0,0.6-0.1,0.8-0.3c0.2-0.2,0.3-0.4,0.3-0.7c0-0.2-0.1-0.4-0.2-0.5c-0.1-0.1-0.3-0.2-0.4-0.3c-0.2-0.1-0.4-0.1-0.7-0.2
		c-0.4-0.1-0.7-0.2-0.9-0.3s-0.4-0.2-0.6-0.5s-0.2-0.5-0.2-0.8c0-0.3,0.1-0.6,0.2-0.8c0.2-0.2,0.4-0.4,0.7-0.5s0.6-0.2,1-0.2
		c0.5,0,0.9,0.1,1.3,0.4c0.3,0.3,0.5,0.6,0.6,1h-0.8c0-0.2-0.1-0.4-0.3-0.6c-0.2-0.2-0.5-0.2-0.8-0.2c-0.3,0-0.6,0.1-0.7,0.2
		s-0.3,0.4-0.3,0.7c0,0.2,0.1,0.4,0.2,0.5c0.1,0.1,0.3,0.2,0.4,0.3s0.4,0.1,0.7,0.2c0.4,0.1,0.7,0.2,0.9,0.3
		c0.2,0.1,0.4,0.3,0.6,0.5c0.2,0.2,0.2,0.5,0.2,0.8c0,0.3-0.1,0.5-0.2,0.8c-0.1,0.2-0.4,0.4-0.6,0.6c-0.3,0.1-0.6,0.2-1,0.2
		C49.9,55.7,49.5,55.7,49.2,55.5z"/>
	<path class="st0" d="M60.9,50.1v0.6h-1.5v5h-0.7v-5h-1.5v-0.6H60.9z"/>
	<path class="st0" d="M62.5,50.7v1.9h2v0.6h-2v1.9h2.3v0.6h-3v-5.6h3v0.6H62.5z"/>
	<path class="st0" d="M65.9,51.4c0.2-0.4,0.6-0.8,1-1s0.9-0.4,1.4-0.4c0.6,0,1.1,0.1,1.6,0.4s0.8,0.7,1,1.2h-0.9
		c-0.2-0.3-0.4-0.6-0.7-0.8c-0.3-0.2-0.6-0.3-1-0.3c-0.4,0-0.7,0.1-1,0.3c-0.3,0.2-0.6,0.4-0.7,0.8s-0.3,0.7-0.3,1.2
		c0,0.4,0.1,0.8,0.3,1.2s0.4,0.6,0.7,0.8c0.3,0.2,0.7,0.3,1,0.3c0.4,0,0.8-0.1,1-0.3s0.5-0.4,0.7-0.8h0.9c-0.2,0.5-0.5,0.9-1,1.2
		s-1,0.4-1.6,0.4c-0.5,0-1-0.1-1.4-0.4c-0.4-0.2-0.8-0.6-1-1s-0.4-0.9-0.4-1.5S65.7,51.8,65.9,51.4z"/>
	<path class="st0" d="M76.4,55.7h-0.7l-2.9-4.4v4.4H72v-5.6h0.7l2.9,4.4v-4.4h0.7V55.7z"/>
	<path class="st0" d="M78.8,55.4c-0.4-0.2-0.8-0.6-1-1c-0.2-0.4-0.4-0.9-0.4-1.5s0.1-1,0.4-1.5c0.2-0.4,0.6-0.8,1-1
		c0.4-0.2,0.9-0.4,1.4-0.4c0.5,0,1,0.1,1.4,0.4s0.8,0.6,1,1s0.4,0.9,0.4,1.5s-0.1,1-0.4,1.5s-0.6,0.8-1,1s-0.9,0.4-1.4,0.4
		C79.7,55.7,79.2,55.6,78.8,55.4z M81.2,54.8c0.3-0.2,0.6-0.4,0.7-0.8c0.2-0.3,0.3-0.7,0.3-1.2c0-0.4-0.1-0.8-0.3-1.2
		c-0.2-0.3-0.4-0.6-0.7-0.8c-0.3-0.2-0.7-0.3-1.1-0.3c-0.4,0-0.7,0.1-1.1,0.3c-0.3,0.2-0.6,0.4-0.7,0.8s-0.3,0.7-0.3,1.2
		c0,0.4,0.1,0.8,0.3,1.2s0.4,0.6,0.7,0.8c0.3,0.2,0.7,0.3,1.1,0.3C80.6,55.1,80.9,55,81.2,54.8z"/>
	<path class="st0" d="M84.7,55.1h2v0.6h-2.7v-5.6h0.7V55.1z"/>
	<path class="st0" d="M88.5,55.4c-0.4-0.2-0.8-0.6-1-1c-0.2-0.4-0.4-0.9-0.4-1.5s0.1-1,0.4-1.5c0.2-0.4,0.6-0.8,1-1
		c0.4-0.2,0.9-0.4,1.4-0.4c0.5,0,1,0.1,1.4,0.4c0.4,0.2,0.8,0.6,1,1s0.4,0.9,0.4,1.5s-0.1,1-0.4,1.5s-0.6,0.8-1,1
		c-0.4,0.2-0.9,0.4-1.4,0.4C89.4,55.7,88.9,55.6,88.5,55.4z M91,54.8c0.3-0.2,0.6-0.4,0.7-0.8s0.3-0.7,0.3-1.2
		c0-0.4-0.1-0.8-0.3-1.2s-0.4-0.6-0.7-0.8c-0.3-0.2-0.7-0.3-1.1-0.3s-0.7,0.1-1.1,0.3c-0.3,0.2-0.6,0.4-0.7,0.8
		c-0.2,0.3-0.3,0.7-0.3,1.2c0,0.4,0.1,0.8,0.3,1.2c0.2,0.3,0.4,0.6,0.7,0.8c0.3,0.2,0.7,0.3,1.1,0.3C90.3,55.1,90.6,55,91,54.8z"/>
	<path class="st0" d="M97.9,51.7c-0.2-0.3-0.4-0.6-0.7-0.8s-0.6-0.3-1-0.3c-0.4,0-0.7,0.1-1.1,0.3c-0.3,0.2-0.6,0.4-0.7,0.8
		c-0.2,0.3-0.3,0.7-0.3,1.2c0,0.4,0.1,0.8,0.3,1.2c0.2,0.3,0.4,0.6,0.7,0.8c0.3,0.2,0.7,0.3,1.1,0.3c0.5,0,1-0.2,1.3-0.5
		c0.4-0.3,0.6-0.8,0.6-1.3h-2.2v-0.6h3v0.6c0,0.5-0.2,0.9-0.4,1.3c-0.2,0.4-0.6,0.7-1,0.9c-0.4,0.2-0.8,0.3-1.3,0.3
		c-0.5,0-1-0.1-1.4-0.4c-0.4-0.2-0.8-0.6-1-1c-0.2-0.4-0.4-0.9-0.4-1.5s0.1-1,0.4-1.5c0.2-0.4,0.6-0.8,1-1c0.4-0.2,0.9-0.4,1.4-0.4
		c0.6,0,1.1,0.1,1.6,0.4s0.8,0.7,1,1.2H97.9z"/>
	<path class="st0" d="M101,48.9l-1.7,0.9v-0.5l1.7-1V48.9z M100.6,50.1v5.6h-0.7v-5.6H100.6z"/>
	<path class="st0" d="M105.1,54.4h-2.4l-0.4,1.2h-0.8l2-5.5h0.8l2,5.5h-0.8L105.1,54.4z M104.9,53.8l-1-2.8l-1,2.8H104.9z"/>
	<path class="st0" d="M111.6,51.4c0.2-0.4,0.6-0.8,1-1s0.9-0.4,1.4-0.4c0.6,0,1.1,0.1,1.6,0.4s0.8,0.7,1,1.2h-0.9
		c-0.2-0.3-0.4-0.6-0.7-0.8c-0.3-0.2-0.6-0.3-1-0.3c-0.4,0-0.7,0.1-1,0.3c-0.3,0.2-0.6,0.4-0.7,0.8c-0.2,0.3-0.3,0.7-0.3,1.2
		c0,0.4,0.1,0.8,0.3,1.2c0.2,0.3,0.4,0.6,0.7,0.8c0.3,0.2,0.7,0.3,1,0.3c0.4,0,0.8-0.1,1-0.3c0.3-0.2,0.5-0.4,0.7-0.8h0.9
		c-0.2,0.5-0.5,0.9-1,1.2s-1,0.4-1.6,0.4c-0.5,0-1-0.1-1.4-0.4c-0.4-0.2-0.8-0.6-1-1s-0.4-0.9-0.4-1.5S111.4,51.8,111.6,51.4z"/>
	<path class="st0" d="M118.8,55.4c-0.4-0.2-0.8-0.6-1-1c-0.2-0.4-0.4-0.9-0.4-1.5s0.1-1,0.4-1.5c0.2-0.4,0.6-0.8,1-1
		c0.4-0.2,0.9-0.4,1.4-0.4c0.5,0,1,0.1,1.4,0.4c0.4,0.2,0.8,0.6,1,1s0.4,0.9,0.4,1.5s-0.1,1-0.4,1.5s-0.6,0.8-1,1
		c-0.4,0.2-0.9,0.4-1.4,0.4C119.7,55.7,119.2,55.6,118.8,55.4z M121.3,54.8c0.3-0.2,0.6-0.4,0.7-0.8s0.3-0.7,0.3-1.2
		c0-0.4-0.1-0.8-0.3-1.2s-0.4-0.6-0.7-0.8c-0.3-0.2-0.7-0.3-1.1-0.3s-0.7,0.1-1.1,0.3c-0.3,0.2-0.6,0.4-0.7,0.8
		c-0.2,0.3-0.3,0.7-0.3,1.2c0,0.4,0.1,0.8,0.3,1.2c0.2,0.3,0.4,0.6,0.7,0.8c0.3,0.2,0.7,0.3,1.1,0.3C120.6,55.1,120.9,55,121.3,54.8
		z"/>
	<path class="st0" d="M129.6,50.1v5.5h-0.7v-4.1l-1.8,4.1h-0.5l-1.8-4.1v4.1H124v-5.5h0.8l2,4.6l2-4.6H129.6z"/>
	<path class="st0" d="M131.6,50.1v3.5c0,0.5,0.1,0.9,0.4,1.1c0.2,0.2,0.6,0.4,1,0.4c0.4,0,0.8-0.1,1-0.4c0.2-0.2,0.4-0.6,0.4-1.1
		v-3.5h0.7v3.5c0,0.5-0.1,0.9-0.3,1.2c-0.2,0.3-0.4,0.6-0.8,0.7c-0.3,0.2-0.7,0.2-1.1,0.2s-0.8-0.1-1.1-0.2s-0.6-0.4-0.8-0.7
		c-0.2-0.3-0.3-0.7-0.3-1.2v-3.5H131.6z"/>
	<path class="st0" d="M140.6,55.7h-0.7l-2.9-4.4v4.4h-0.7v-5.6h0.7l2.9,4.4v-4.4h0.7V55.7z"/>
	<path class="st0" d="M142.6,50.1v5.6h-0.7v-5.6H142.6z"/>
	<path class="st0" d="M143.9,51.4c0.2-0.4,0.6-0.8,1-1s0.9-0.4,1.4-0.4c0.6,0,1.1,0.1,1.6,0.4s0.8,0.7,1,1.2H148
		c-0.2-0.3-0.4-0.6-0.7-0.8c-0.3-0.2-0.6-0.3-1-0.3c-0.4,0-0.7,0.1-1,0.3c-0.3,0.2-0.6,0.4-0.7,0.8c-0.2,0.3-0.3,0.7-0.3,1.2
		c0,0.4,0.1,0.8,0.3,1.2c0.2,0.3,0.4,0.6,0.7,0.8c0.3,0.2,0.7,0.3,1,0.3c0.4,0,0.8-0.1,1-0.3c0.3-0.2,0.5-0.4,0.7-0.8h0.9
		c-0.2,0.5-0.5,0.9-1,1.2s-1,0.4-1.6,0.4c-0.5,0-1-0.1-1.4-0.4c-0.4-0.2-0.8-0.6-1-1s-0.4-0.9-0.4-1.5S143.7,51.8,143.9,51.4z"/>
	<path class="st0" d="M153.3,54.4h-2.4l-0.4,1.2h-0.8l2-5.5h0.8l2,5.5h-0.8L153.3,54.4z M153.1,53.8l-1-2.8l-1,2.8H153.1z"/>
	<path class="st0" d="M155.5,51.4c0.2-0.4,0.6-0.8,1-1s0.9-0.4,1.4-0.4c0.6,0,1.1,0.1,1.6,0.4s0.8,0.7,1,1.2h-0.9
		c-0.2-0.3-0.4-0.6-0.7-0.8c-0.3-0.2-0.6-0.3-1-0.3c-0.4,0-0.7,0.1-1,0.3c-0.3,0.2-0.6,0.4-0.7,0.8c-0.2,0.3-0.3,0.7-0.3,1.2
		c0,0.4,0.1,0.8,0.3,1.2c0.2,0.3,0.4,0.6,0.7,0.8c0.3,0.2,0.7,0.3,1,0.3c0.4,0,0.8-0.1,1-0.3c0.3-0.2,0.5-0.4,0.7-0.8h0.9
		c-0.2,0.5-0.5,0.9-1,1.2s-1,0.4-1.6,0.4c-0.5,0-1-0.1-1.4-0.4c-0.4-0.2-0.8-0.6-1-1s-0.4-0.9-0.4-1.5S155.2,51.8,155.5,51.4z"/>
	<path class="st0" d="M162.3,50.1v5.6h-0.7v-5.6H162.3z"/>
	<path class="st0" d="M164.6,55.4c-0.4-0.2-0.8-0.6-1-1c-0.2-0.4-0.4-0.9-0.4-1.5s0.1-1,0.4-1.5c0.2-0.4,0.6-0.8,1-1
		c0.4-0.2,0.9-0.4,1.4-0.4c0.5,0,1,0.1,1.4,0.4c0.4,0.2,0.8,0.6,1,1s0.4,0.9,0.4,1.5s-0.1,1-0.4,1.5s-0.6,0.8-1,1
		c-0.4,0.2-0.9,0.4-1.4,0.4C165.5,55.7,165.1,55.6,164.6,55.4z M167.1,54.8c0.3-0.2,0.6-0.4,0.7-0.8s0.3-0.7,0.3-1.2
		c0-0.4-0.1-0.8-0.3-1.2s-0.4-0.6-0.7-0.8c-0.3-0.2-0.7-0.3-1.1-0.3s-0.7,0.1-1.1,0.3c-0.3,0.2-0.6,0.4-0.7,0.8
		c-0.2,0.3-0.3,0.7-0.3,1.2c0,0.4,0.1,0.8,0.3,1.2c0.2,0.3,0.4,0.6,0.7,0.8c0.3,0.2,0.7,0.3,1.1,0.3C166.4,55.1,166.8,55,167.1,54.8
		z"/>
	<path class="st0" d="M174.2,55.7h-0.7l-2.9-4.4v4.4h-0.7v-5.6h0.7l2.9,4.4v-4.4h0.7V55.7z"/>
	<path class="st0" d="M176.2,50.7v1.9h2v0.6h-2v1.9h2.3v0.6h-3v-5.6h3v0.6H176.2z"/>
	<path class="st0" d="M180.3,55.5c-0.3-0.1-0.5-0.3-0.7-0.5c-0.2-0.2-0.3-0.5-0.3-0.8h0.8c0,0.3,0.1,0.5,0.3,0.7s0.5,0.3,0.8,0.3
		c0.3,0,0.6-0.1,0.8-0.3c0.2-0.2,0.3-0.4,0.3-0.7c0-0.2-0.1-0.4-0.2-0.5c-0.1-0.1-0.3-0.2-0.4-0.3s-0.4-0.1-0.7-0.2
		c-0.4-0.1-0.7-0.2-0.9-0.3c-0.2-0.1-0.4-0.2-0.6-0.5s-0.2-0.5-0.2-0.8c0-0.3,0.1-0.6,0.2-0.8c0.2-0.2,0.4-0.4,0.7-0.5
		s0.6-0.2,1-0.2c0.5,0,1,0.1,1.3,0.4c0.3,0.3,0.5,0.6,0.6,1h-0.8c0-0.2-0.1-0.4-0.3-0.6c-0.2-0.2-0.5-0.2-0.8-0.2
		c-0.3,0-0.6,0.1-0.7,0.2c-0.2,0.2-0.3,0.4-0.3,0.7c0,0.2,0.1,0.4,0.2,0.5c0.1,0.1,0.3,0.2,0.4,0.3s0.4,0.1,0.7,0.2
		c0.4,0.1,0.7,0.2,0.9,0.3c0.2,0.1,0.4,0.3,0.6,0.5c0.2,0.2,0.2,0.5,0.2,0.8c0,0.3-0.1,0.5-0.2,0.8c-0.1,0.2-0.4,0.4-0.6,0.6
		s-0.6,0.2-1,0.2C180.9,55.7,180.6,55.7,180.3,55.5z"/>
</g>
<g>
	<path class="st1" d="M20.3,43.7c-1.4-0.6-2.4-1.4-3.2-2.4c-0.8-1-1.2-2.2-1.3-3.5h6c0.1,0.7,0.4,1.2,1,1.7c0.6,0.4,1.3,0.6,2.1,0.6
		c0.8,0,1.3-0.1,1.8-0.4c0.4-0.3,0.6-0.7,0.6-1.2c0-0.6-0.3-1-0.9-1.3c-0.6-0.3-1.6-0.6-2.9-0.9c-1.4-0.3-2.6-0.7-3.6-1
		c-0.9-0.4-1.8-0.9-2.5-1.7c-0.7-0.8-1-1.9-1-3.2c0-1.1,0.3-2.2,0.9-3.1c0.6-0.9,1.6-1.7,2.8-2.2c1.2-0.5,2.7-0.8,4.4-0.8
		c2.5,0,4.5,0.6,5.9,1.8c1.4,1.2,2.3,2.9,2.5,4.9h-5.6c-0.1-0.7-0.4-1.2-0.9-1.6c-0.5-0.4-1.2-0.6-2-0.6c-0.7,0-1.3,0.1-1.6,0.4
		c-0.4,0.3-0.6,0.6-0.6,1.1c0,0.6,0.3,1,0.9,1.3c0.6,0.3,1.5,0.6,2.8,0.9c1.5,0.4,2.7,0.8,3.6,1.1c0.9,0.4,1.7,1,2.4,1.8
		c0.7,0.8,1.1,1.9,1.1,3.3c0,1.2-0.3,2.2-1,3.1c-0.7,0.9-1.6,1.6-2.8,2.2c-1.2,0.5-2.6,0.8-4.2,0.8C23.2,44.6,21.7,44.3,20.3,43.7z"
		/>
	<path class="st1" d="M37.2,21.4c-0.7-0.6-1-1.4-1-2.3c0-0.9,0.3-1.7,1-2.4c0.7-0.6,1.5-0.9,2.6-0.9c1,0,1.9,0.3,2.6,0.9
		c0.7,0.6,1,1.4,1,2.4c0,0.9-0.3,1.7-1,2.3c-0.7,0.6-1.5,0.9-2.6,0.9C38.7,22.4,37.8,22.1,37.2,21.4z M42.8,30.5v13.8h-6.1V24.4h0
		C40.1,24.4,42.8,27.2,42.8,30.5z"/>
	<path class="st1" d="M50.6,43.7c-1.4-0.6-2.4-1.4-3.2-2.4c-0.8-1-1.2-2.2-1.3-3.5h6c0.1,0.7,0.4,1.2,1,1.7c0.6,0.4,1.3,0.6,2.1,0.6
		c0.8,0,1.3-0.1,1.8-0.4c0.4-0.3,0.6-0.7,0.6-1.2c0-0.6-0.3-1-0.9-1.3c-0.6-0.3-1.6-0.6-2.9-0.9c-1.4-0.3-2.6-0.7-3.6-1
		c-0.9-0.4-1.8-0.9-2.5-1.7c-0.7-0.8-1-1.9-1-3.2c0-1.1,0.3-2.2,0.9-3.1c0.6-0.9,1.6-1.7,2.8-2.2c1.2-0.5,2.7-0.8,4.4-0.8
		c2.5,0,4.5,0.6,5.9,1.8c1.4,1.2,2.3,2.9,2.5,4.9h-5.6c-0.1-0.7-0.4-1.2-0.9-1.6c-0.5-0.4-1.2-0.6-2-0.6c-0.7,0-1.3,0.1-1.6,0.4
		c-0.4,0.3-0.6,0.6-0.6,1.1c0,0.6,0.3,1,0.9,1.3s1.5,0.6,2.8,0.9c1.5,0.4,2.7,0.8,3.6,1.1c0.9,0.4,1.7,1,2.4,1.8
		c0.7,0.8,1.1,1.9,1.1,3.3c0,1.2-0.3,2.2-1,3.1c-0.7,0.9-1.6,1.6-2.8,2.2c-1.2,0.5-2.6,0.8-4.2,0.8C53.5,44.6,52,44.3,50.6,43.7z"/>
	<path class="st2" d="M100.1,35.8H86.3c0.1,1.2,0.5,2.2,1.2,2.8c0.7,0.7,1.6,1,2.6,1c1.5,0,2.6-0.6,3.2-1.9h6.5
		c-0.3,1.3-0.9,2.5-1.8,3.5c-0.9,1-2,1.9-3.3,2.5c-1.3,0.6-2.8,0.9-4.4,0.9c-1.9,0-3.7-0.4-5.2-1.2c-1.5-0.8-2.7-2-3.6-3.6
		c-0.9-1.5-1.3-3.3-1.3-5.4c0-2.1,0.4-3.9,1.3-5.4c0.8-1.5,2-2.7,3.5-3.6c1.5-0.8,3.3-1.2,5.2-1.2c1.9,0,3.6,0.4,5.1,1.2
		c1.5,0.8,2.7,2,3.5,3.4c0.8,1.5,1.3,3.2,1.3,5.2C100.2,34.6,100.2,35.2,100.1,35.8z M94,32.4c0-1-0.4-1.9-1.1-2.5
		c-0.7-0.6-1.6-0.9-2.7-0.9c-1,0-1.9,0.3-2.6,0.9c-0.7,0.6-1.1,1.4-1.3,2.5H94z"/>
	<path class="st3" d="M103.4,29c0.8-1.5,2-2.7,3.5-3.6c1.5-0.8,3.2-1.2,5.2-1.2c2.5,0,4.6,0.7,6.2,2c1.7,1.3,2.8,3.1,3.3,5.5h-6.5
		c-0.5-1.5-1.6-2.3-3.2-2.3c-1.1,0-2,0.4-2.7,1.3c-0.7,0.9-1,2.1-1,3.7c0,1.6,0.3,2.9,1,3.7c0.7,0.9,1.6,1.3,2.7,1.3
		c1.6,0,2.6-0.8,3.2-2.3h6.5c-0.5,2.3-1.6,4.1-3.3,5.5c-1.7,1.3-3.8,2-6.2,2c-1.9,0-3.7-0.4-5.2-1.2c-1.5-0.8-2.7-2-3.5-3.6
		c-0.8-1.5-1.3-3.3-1.3-5.4C102.2,32.3,102.6,30.5,103.4,29z"/>
	<path class="st3" d="M180.9,26.5c1.5,1.5,2.2,3.6,2.2,6.2v11.6h-6V33.5c0-1.3-0.3-2.3-1-3c-0.7-0.7-1.6-1-2.8-1
		c-1.2,0-2.1,0.4-2.8,1c-0.7,0.7-1,1.7-1,3v10.8h-6V33.5c0-1.3-0.3-2.3-1-3c-0.7-0.7-1.6-1-2.8-1c-1.2,0-2.1,0.4-2.8,1
		c-0.7,0.7-1,1.7-1,3v10.8h-6.1V24.4h6.1v2.5c0.6-0.8,1.4-1.5,2.4-2c1-0.5,2.1-0.7,3.4-0.7c1.5,0,2.8,0.3,4,1
		c1.2,0.6,2.1,1.6,2.8,2.7c0.7-1.1,1.6-2,2.8-2.7c1.2-0.7,2.5-1,3.9-1C177.4,24.2,179.4,25,180.9,26.5z"/>
	<g>
		<path class="st2" d="M74.1,24.2L74.1,24.2c0-2.5-2-4.6-4.6-4.6H68v4.6H74.1z"/>
		<path class="st2" d="M74.5,38.7c-0.3-0.3-0.4-0.7-0.4-1.3v-8h4v-4.9H65.6v4.9H68v7.9c0,2.4,0.6,4.2,1.8,5.3c1.2,1.1,3,1.6,5.2,1.6
			h3.1v-5.2h-2.2C75.3,39.1,74.8,39,74.5,38.7z"/>
	</g>
</g>
<g>
	<path class="st3" d="M129.6,43.4c-1.7-0.9-3-2.2-3.9-3.9c-1-1.7-1.5-3.5-1.5-5.6c0-2.1,0.5-3.9,1.5-5.6c1-1.6,2.3-2.9,3.9-3.9
		c1.7-0.9,3.5-1.4,5.5-1.4c2,0,3.8,0.5,5.5,1.4c1.7,0.9,3,2.2,3.9,3.9c1,1.6,1.4,3.5,1.4,5.6c0,2.1-0.5,3.9-1.4,5.6
		c-1,1.7-2.3,2.9-3.9,3.9c-1.6,0.9-3.5,1.4-5.5,1.4C133.1,44.8,131.3,44.3,129.6,43.4z M139.1,38.4c1-1.1,1.5-2.6,1.5-4.5
		c0-1.9-0.5-3.4-1.5-4.5c-1-1.1-2.4-1.7-4.1-1.7c-1.7,0-3.1,0.6-4.1,1.7c-1,1.1-1.5,2.6-1.5,4.5c0,1.9,0.5,3.4,1.5,4.5
		c1,1.1,2.4,1.7,4.1,1.7C136.8,40.1,138.1,39.5,139.1,38.4z"/>
</g>
<circle class="st4" cx="55" cy="52.9" r="2.1"/>
<circle class="st4" cx="108.7" cy="52.9" r="2.1"/>
<g id="XMLID_00000173865347846692208880000005479657581698257291_">
	<path id="XMLID_00000010302292193518123500000008228722810197676211_" class="st1" d="M143.7,16.1c-2.5-1.2-5.4-1.2-8-0.3
		c-1,0.4-1.5,1.5-1.2,2.6c0.4,1,1.5,1.5,2.6,1.2c1.6-0.6,3.4-0.6,5,0.2c1.6,0.7,2.8,2,3.4,3.6c0.2,0.5,0.6,0.9,1,1.1
		c0.5,0.2,1,0.2,1.5,0.1c1-0.4,1.5-1.5,1.2-2.6C148.2,19.3,146.2,17.2,143.7,16.1z"/>
	<path id="XMLID_00000071561674725841360260000011248319192433285562_" class="st1" d="M146.4,10.1c-4.1-1.9-8.8-2-13-0.4
		c-1,0.4-1.5,1.5-1.2,2.6c0.4,1,1.5,1.5,2.6,1.2c3.3-1.2,6.8-1.1,10,0.3c3.2,1.4,5.6,4,6.8,7.3c0.2,0.5,0.6,0.9,1,1.1
		c0.5,0.2,1,0.2,1.5,0.1c1-0.4,1.5-1.5,1.2-2.6C153.7,15.3,150.5,12,146.4,10.1z"/>
	<path id="XMLID_00000155143852517976563610000009729829253644676790_" class="st1" d="M161.4,17.3c-2.2-5.9-6.6-10.6-12.3-13.2
		s-12.1-2.8-18-0.6c-1,0.4-1.5,1.5-1.2,2.6c0.2,0.5,0.6,0.9,1,1.1c0.5,0.2,1,0.2,1.5,0.1c4.9-1.8,10.2-1.7,15,0.5
		c4.8,2.2,8.4,6.1,10.3,11c0.4,1,1.5,1.5,2.6,1.2C161.3,19.5,161.8,18.3,161.4,17.3z"/>
</g>
<rect x="16" y="45.6" class="st1" width="166.8" height="2"/>
</svg>
